<svg xmlns="http://www.w3.org/2000/svg" viewBox="0 0 1044 5.97"><defs><style>.cls-1{fill:none;stroke:#000;stroke-linecap:round;stroke-miterlimit:10;stroke-width:4px;}</style></defs><g id="レイヤー_2" data-name="レイヤー 2"><g id="レイヤー_1-2" data-name="レイヤー 1"><path class="cls-1" d="M2,3c4,0,4-.3,8-.3s4,.21,8,.21,4-.55,8-.55,4,1.32,8,1.32,4-1.42,8-1.42,4,.94,8,.94h8c4,0,4-1.14,8-1.14s4,.34,8,.34,4,.49,8,.49,4,1,8,1S94,3,98,3s4,.84,8,.84,4-1.39,8-1.39,4,.76,8,.76,4-.64,8-.64,4,1.21,8,1.21,4-1.68,8-1.68,4,.08,8,.08,4,.45,8,.45,4,.68,8,.68,4-1.24,8-1.24,4,1.15,8,1.15,4,.38,8,.38,4-.15,8-.15S206,3,210,3s4-.67,8-.67,4,.47,8,.47,4-.23,8-.23,4,.4,8,.4,4,0,8,0,4-.27,8-.27,4-.15,8-.15,4,1.31,8,1.31,4-.42,8-.42S286,3,290,3s4,.06,8,.06,4,.11,8,.11,4-.42,8-.42,4-.57,8-.57,4,.55,8,.55,4,.91,8,.91,4-.42,8-.42,4-.63,8-.63,4,0,8,0,4,1,8,1,4-.17,8-.17,4-.06,8-.06,4-.27,8-.27,4-1.09,8-1.09,4,.93,8,.93,4-.46,8-.46,4,1.5,8,1.5,4-1.06,8-1.06,4-.07,8-.07,4-.45,8-.45,4,1.17,8,1.17,4,0,8,0,4,0,8,0,4-.48,8-.48,4,.43,8,.43,4-.8,8-.8,4,.63,8,.63,4,.55,8,.55,4-.58,8-.58,4,.21,8,.21,4-1.35,8-1.35,4,1.29,8,1.29,4-.54,8-.54,4,.87,8,.87,4-.34,8-.34,4,.58,8,.58,4-.63,8-.63,4-.15,8-.15,4,.63,8,.63,4-.8,8-.8,4,.36,8,.36,4-.32,8-.32,4,.17,8,.17,4-1.13,8-1.13,4,1,8,1,4,.69,8,.69,4-.1,8-.1,4-1.28,8-1.28,4,1.13,8,1.13,4,.11,8,.11,4,.09,8,.09,4-.42,8-.42,4-1.21,8-1.21,4,.63,8,.63,4,.91,8,.91,4,.22,8,.22,4,.15,8,.15,4-1.59,8-1.59,4,.55,8,.55h8c4,0,4,.83,8,.83s4-.77,8-.77,4-.64,8-.64,4-.22,8-.22,4,1.36,8,1.36,4-1.42,8-1.42,4,1.33,8,1.33,4-.1,8-.1h8c4,0,4,.25,8,.25s4,.16,8,.16,4-1.09,8-1.09,4,.4,8,.4,4-.52,8-.52,4,1.18,8,1.18,4-.22,8-.22,4-1,8-1,4,1.11,8,1.11,4,.32,8,.32,4-.59,8-.59,4-.25,8-.25,4,.79,8,.79,4-.66,8-.66,4,.15,8,.15,4-.42,8-.42,4-.47,8-.47,4,.83,8,.83,4-.9,8-.9,4,.92,8,.92,4,.09,8,.09,4-.18,8-.18,4-.17,8-.17,4-.25,8-.25,4,1,8,1"/></g></g></svg>