<svg xmlns="http://www.w3.org/2000/svg" viewBox="0 0 338 4.12"><defs><style>.cls-1{fill:none;stroke:#000;stroke-linecap:round;stroke-miterlimit:10;stroke-width:3px;}</style></defs><g id="レイヤー_2" data-name="レイヤー 2"><g id="レイヤー_1-2" data-name="レイヤー 1"><path class="cls-1" d="M1.5,2.07c3,0,3-.17,6-.17s3,.12,6,.12,3-.31,6-.31,3,.75,6,.75,3-.81,6-.81,3,.53,6,.53h6c3,0,3-.65,6-.65s3,.19,6,.19,3,.29,6,.29,3,.59,6,.59,3-.53,6-.53,3,.47,6,.47,3-.78,6-.78,3,.43,6,.43,3-.37,6-.37,3,.69,6,.69,3-.95,6-.95,3,0,6,0,3,.26,6,.26,3,.38,6,.38,3-.7,6-.7,3,.65,6,.65,3,.22,6,.22,3-.09,6-.09S154,2,157,2s3-.38,6-.38,3,.27,6,.27,3-.13,6-.13,3,.23,6,.23h6c3,0,3-.15,6-.15s3-.09,6-.09,3,.75,6,.75,3-.24,6-.24,3-.25,6-.25,3,0,6,0,3,.06,6,.06,3-.24,6-.24,3-.33,6-.33,3,.32,6,.32,3,.51,6,.51,3-.23,6-.23,3-.36,6-.36,3,0,6,0,3,.59,6,.59,3-.09,6-.09,3,0,6,0,3-.15,6-.15,3-.62,6-.62,3,.53,6,.53,3-.26,6-.26,3,.85,6,.85,3-.6,6-.6,3,0,6,0,3-.26,6-.26"/></g></g></svg>